<mxfile host="app.diagrams.net" modified="2023-11-22T14:24:25.539Z" agent="Mozilla/5.0 (Windows NT 10.0; Win64; x64) AppleWebKit/537.36 (KHTML, like Gecko) Chrome/119.0.0.0 Safari/537.36 Edg/119.0.0.0" etag="tCndYJwpFc-Ft-qrHiFz" version="22.1.3" type="device">
  <diagram name="Страница — 1" id="5kdZOoJF7YA166XJKKtv">
    <mxGraphModel dx="1742" dy="1064" grid="1" gridSize="10" guides="1" tooltips="1" connect="1" arrows="1" fold="1" page="1" pageScale="1" pageWidth="827" pageHeight="1169" math="0" shadow="0">
      <root>
        <mxCell id="0" />
        <mxCell id="1" parent="0" />
        <mxCell id="ubMrgsZEEIUG3p9_Rat9-3" value="" style="edgeStyle=orthogonalEdgeStyle;rounded=0;orthogonalLoop=1;jettySize=auto;html=1;" edge="1" parent="1" source="ubMrgsZEEIUG3p9_Rat9-1">
          <mxGeometry relative="1" as="geometry">
            <mxPoint x="320" y="170" as="targetPoint" />
          </mxGeometry>
        </mxCell>
        <mxCell id="ubMrgsZEEIUG3p9_Rat9-1" value="void ffunc(char *sstr)" style="strokeWidth=1;html=1;shape=mxgraph.flowchart.terminator;whiteSpace=wrap;" vertex="1" parent="1">
          <mxGeometry x="260" y="50" width="120" height="60" as="geometry" />
        </mxCell>
        <mxCell id="ubMrgsZEEIUG3p9_Rat9-25" value="&lt;font style=&quot;font-size: 20px;&quot;&gt;1&lt;/font&gt;" style="text;html=1;strokeColor=none;fillColor=none;align=center;verticalAlign=middle;whiteSpace=wrap;rounded=0;" vertex="1" parent="1">
          <mxGeometry x="290" y="10" width="60" height="30" as="geometry" />
        </mxCell>
        <mxCell id="ubMrgsZEEIUG3p9_Rat9-26" value="&lt;font style=&quot;font-size: 20px;&quot;&gt;E&lt;/font&gt;" style="text;html=1;strokeColor=none;fillColor=none;align=center;verticalAlign=middle;whiteSpace=wrap;rounded=0;" vertex="1" parent="1">
          <mxGeometry x="190" y="545" width="60" height="30" as="geometry" />
        </mxCell>
        <mxCell id="ubMrgsZEEIUG3p9_Rat9-27" value="&lt;font style=&quot;font-size: 20px;&quot;&gt;F&lt;/font&gt;" style="text;html=1;strokeColor=none;fillColor=none;align=center;verticalAlign=middle;whiteSpace=wrap;rounded=0;" vertex="1" parent="1">
          <mxGeometry x="190" y="665" width="60" height="30" as="geometry" />
        </mxCell>
        <mxCell id="ubMrgsZEEIUG3p9_Rat9-28" value="&lt;font style=&quot;font-size: 20px;&quot;&gt;G&lt;/font&gt;" style="text;html=1;strokeColor=none;fillColor=none;align=center;verticalAlign=middle;whiteSpace=wrap;rounded=0;" vertex="1" parent="1">
          <mxGeometry x="190" y="785" width="60" height="30" as="geometry" />
        </mxCell>
        <mxCell id="ubMrgsZEEIUG3p9_Rat9-29" value="&lt;font style=&quot;font-size: 20px;&quot;&gt;D&lt;/font&gt;" style="text;html=1;strokeColor=none;fillColor=none;align=center;verticalAlign=middle;whiteSpace=wrap;rounded=0;" vertex="1" parent="1">
          <mxGeometry x="190" y="425" width="60" height="30" as="geometry" />
        </mxCell>
        <mxCell id="ubMrgsZEEIUG3p9_Rat9-30" value="&lt;font style=&quot;font-size: 20px;&quot;&gt;C&lt;/font&gt;" style="text;html=1;strokeColor=none;fillColor=none;align=center;verticalAlign=middle;whiteSpace=wrap;rounded=0;" vertex="1" parent="1">
          <mxGeometry x="190" y="305" width="60" height="30" as="geometry" />
        </mxCell>
        <mxCell id="ubMrgsZEEIUG3p9_Rat9-31" value="&lt;font style=&quot;font-size: 20px;&quot;&gt;B&lt;/font&gt;" style="text;html=1;strokeColor=none;fillColor=none;align=center;verticalAlign=middle;whiteSpace=wrap;rounded=0;" vertex="1" parent="1">
          <mxGeometry x="190" y="185" width="60" height="30" as="geometry" />
        </mxCell>
        <mxCell id="ubMrgsZEEIUG3p9_Rat9-32" value="&lt;span style=&quot;font-size: 20px;&quot;&gt;A&lt;/span&gt;" style="text;html=1;strokeColor=none;fillColor=none;align=center;verticalAlign=middle;whiteSpace=wrap;rounded=0;" vertex="1" parent="1">
          <mxGeometry x="190" y="65" width="60" height="30" as="geometry" />
        </mxCell>
        <mxCell id="ubMrgsZEEIUG3p9_Rat9-37" value="" style="edgeStyle=orthogonalEdgeStyle;rounded=0;orthogonalLoop=1;jettySize=auto;html=1;entryX=0.5;entryY=0;entryDx=0;entryDy=0;" edge="1" parent="1" source="ubMrgsZEEIUG3p9_Rat9-33" target="ubMrgsZEEIUG3p9_Rat9-91">
          <mxGeometry relative="1" as="geometry">
            <mxPoint x="319.9999999999998" y="280" as="targetPoint" />
          </mxGeometry>
        </mxCell>
        <mxCell id="ubMrgsZEEIUG3p9_Rat9-33" value="&lt;div&gt;strcpy(sttr,sstr);&lt;/div&gt;&lt;div&gt;&lt;span style=&quot;background-color: initial;&quot;&gt;strcpy(strr,sstr);&lt;/span&gt;&lt;/div&gt;&lt;div&gt;&lt;span style=&quot;background-color: initial;&quot;&gt;strcpy(sstr,&quot;&quot;);&lt;br&gt;&lt;/span&gt;&lt;/div&gt;" style="rounded=0;whiteSpace=wrap;html=1;" vertex="1" parent="1">
          <mxGeometry x="260" y="170" width="120" height="60" as="geometry" />
        </mxCell>
        <mxCell id="ubMrgsZEEIUG3p9_Rat9-85" value="&lt;font style=&quot;font-size: 20px;&quot;&gt;H&lt;/font&gt;" style="text;html=1;strokeColor=none;fillColor=none;align=center;verticalAlign=middle;whiteSpace=wrap;rounded=0;" vertex="1" parent="1">
          <mxGeometry x="190" y="905" width="60" height="30" as="geometry" />
        </mxCell>
        <mxCell id="ubMrgsZEEIUG3p9_Rat9-93" value="" style="edgeStyle=orthogonalEdgeStyle;rounded=0;orthogonalLoop=1;jettySize=auto;html=1;" edge="1" parent="1" source="ubMrgsZEEIUG3p9_Rat9-91" target="ubMrgsZEEIUG3p9_Rat9-92">
          <mxGeometry relative="1" as="geometry" />
        </mxCell>
        <mxCell id="ubMrgsZEEIUG3p9_Rat9-91" value="token=strtok(sttr, &quot; &quot;);" style="rounded=0;whiteSpace=wrap;html=1;" vertex="1" parent="1">
          <mxGeometry x="260" y="290" width="120" height="60" as="geometry" />
        </mxCell>
        <mxCell id="ubMrgsZEEIUG3p9_Rat9-97" value="" style="edgeStyle=orthogonalEdgeStyle;rounded=0;orthogonalLoop=1;jettySize=auto;html=1;" edge="1" parent="1" source="ubMrgsZEEIUG3p9_Rat9-92" target="ubMrgsZEEIUG3p9_Rat9-96">
          <mxGeometry relative="1" as="geometry" />
        </mxCell>
        <mxCell id="ubMrgsZEEIUG3p9_Rat9-141" style="edgeStyle=orthogonalEdgeStyle;rounded=0;orthogonalLoop=1;jettySize=auto;html=1;exitX=1;exitY=0.5;exitDx=0;exitDy=0;entryX=0.5;entryY=0;entryDx=0;entryDy=0;" edge="1" parent="1" source="ubMrgsZEEIUG3p9_Rat9-92" target="ubMrgsZEEIUG3p9_Rat9-126">
          <mxGeometry relative="1" as="geometry">
            <mxPoint x="520" y="260" as="targetPoint" />
            <Array as="points">
              <mxPoint x="400" y="440" />
              <mxPoint x="400" y="260" />
              <mxPoint x="520" y="260" />
            </Array>
          </mxGeometry>
        </mxCell>
        <mxCell id="ubMrgsZEEIUG3p9_Rat9-92" value="token != NULL?" style="rhombus;whiteSpace=wrap;html=1;" vertex="1" parent="1">
          <mxGeometry x="260" y="400" width="120" height="80" as="geometry" />
        </mxCell>
        <mxCell id="ubMrgsZEEIUG3p9_Rat9-101" value="" style="edgeStyle=orthogonalEdgeStyle;rounded=0;orthogonalLoop=1;jettySize=auto;html=1;" edge="1" parent="1" source="ubMrgsZEEIUG3p9_Rat9-94" target="ubMrgsZEEIUG3p9_Rat9-100">
          <mxGeometry relative="1" as="geometry" />
        </mxCell>
        <mxCell id="ubMrgsZEEIUG3p9_Rat9-104" style="edgeStyle=orthogonalEdgeStyle;rounded=0;orthogonalLoop=1;jettySize=auto;html=1;entryX=0.5;entryY=0;entryDx=0;entryDy=0;" edge="1" parent="1" source="ubMrgsZEEIUG3p9_Rat9-94" target="ubMrgsZEEIUG3p9_Rat9-102">
          <mxGeometry relative="1" as="geometry">
            <mxPoint x="240" y="860" as="targetPoint" />
            <Array as="points">
              <mxPoint x="400" y="680" />
              <mxPoint x="400" y="860" />
              <mxPoint x="320" y="860" />
            </Array>
          </mxGeometry>
        </mxCell>
        <mxCell id="ubMrgsZEEIUG3p9_Rat9-94" value="tokLen % 2 == 0?" style="rhombus;whiteSpace=wrap;html=1;" vertex="1" parent="1">
          <mxGeometry x="260" y="640" width="120" height="80" as="geometry" />
        </mxCell>
        <mxCell id="ubMrgsZEEIUG3p9_Rat9-98" value="" style="edgeStyle=orthogonalEdgeStyle;rounded=0;orthogonalLoop=1;jettySize=auto;html=1;" edge="1" parent="1" source="ubMrgsZEEIUG3p9_Rat9-96" target="ubMrgsZEEIUG3p9_Rat9-94">
          <mxGeometry relative="1" as="geometry" />
        </mxCell>
        <mxCell id="ubMrgsZEEIUG3p9_Rat9-96" value="tokLen = strlen(token)" style="rounded=0;whiteSpace=wrap;html=1;" vertex="1" parent="1">
          <mxGeometry x="260" y="530" width="120" height="60" as="geometry" />
        </mxCell>
        <mxCell id="ubMrgsZEEIUG3p9_Rat9-105" value="" style="edgeStyle=orthogonalEdgeStyle;rounded=0;orthogonalLoop=1;jettySize=auto;html=1;" edge="1" parent="1" source="ubMrgsZEEIUG3p9_Rat9-100" target="ubMrgsZEEIUG3p9_Rat9-102">
          <mxGeometry relative="1" as="geometry" />
        </mxCell>
        <mxCell id="ubMrgsZEEIUG3p9_Rat9-100" value="strcat(sstr, token);&lt;br&gt;strcat(sstr, &quot; &quot;);" style="rounded=0;whiteSpace=wrap;html=1;" vertex="1" parent="1">
          <mxGeometry x="260" y="770" width="120" height="60" as="geometry" />
        </mxCell>
        <mxCell id="ubMrgsZEEIUG3p9_Rat9-106" style="edgeStyle=orthogonalEdgeStyle;rounded=0;orthogonalLoop=1;jettySize=auto;html=1;entryX=0.5;entryY=0;entryDx=0;entryDy=0;" edge="1" parent="1" source="ubMrgsZEEIUG3p9_Rat9-102" target="ubMrgsZEEIUG3p9_Rat9-92">
          <mxGeometry relative="1" as="geometry">
            <mxPoint x="420" y="380" as="targetPoint" />
            <Array as="points">
              <mxPoint x="240" y="920" />
              <mxPoint x="240" y="380" />
              <mxPoint x="320" y="380" />
            </Array>
          </mxGeometry>
        </mxCell>
        <mxCell id="ubMrgsZEEIUG3p9_Rat9-102" value="token =&lt;br&gt;strtok(NULL, &quot; &quot;);" style="rounded=0;whiteSpace=wrap;html=1;" vertex="1" parent="1">
          <mxGeometry x="260" y="890" width="120" height="60" as="geometry" />
        </mxCell>
        <mxCell id="ubMrgsZEEIUG3p9_Rat9-122" value="да" style="text;html=1;strokeColor=none;fillColor=none;align=center;verticalAlign=middle;whiteSpace=wrap;rounded=0;" vertex="1" parent="1">
          <mxGeometry x="310" y="470" width="60" height="30" as="geometry" />
        </mxCell>
        <mxCell id="ubMrgsZEEIUG3p9_Rat9-123" value="да" style="text;html=1;strokeColor=none;fillColor=none;align=center;verticalAlign=middle;whiteSpace=wrap;rounded=0;" vertex="1" parent="1">
          <mxGeometry x="310" y="710" width="60" height="30" as="geometry" />
        </mxCell>
        <mxCell id="ubMrgsZEEIUG3p9_Rat9-124" value="нет" style="text;html=1;strokeColor=none;fillColor=none;align=center;verticalAlign=middle;whiteSpace=wrap;rounded=0;" vertex="1" parent="1">
          <mxGeometry x="360" y="650" width="60" height="30" as="geometry" />
        </mxCell>
        <mxCell id="ubMrgsZEEIUG3p9_Rat9-125" value="" style="edgeStyle=orthogonalEdgeStyle;rounded=0;orthogonalLoop=1;jettySize=auto;html=1;" edge="1" source="ubMrgsZEEIUG3p9_Rat9-126" target="ubMrgsZEEIUG3p9_Rat9-128" parent="1">
          <mxGeometry relative="1" as="geometry" />
        </mxCell>
        <mxCell id="ubMrgsZEEIUG3p9_Rat9-126" value="token=strtok(strr, &quot; &quot;);" style="rounded=0;whiteSpace=wrap;html=1;" vertex="1" parent="1">
          <mxGeometry x="460" y="290" width="120" height="60" as="geometry" />
        </mxCell>
        <mxCell id="ubMrgsZEEIUG3p9_Rat9-127" value="" style="edgeStyle=orthogonalEdgeStyle;rounded=0;orthogonalLoop=1;jettySize=auto;html=1;" edge="1" source="ubMrgsZEEIUG3p9_Rat9-128" target="ubMrgsZEEIUG3p9_Rat9-133" parent="1">
          <mxGeometry relative="1" as="geometry" />
        </mxCell>
        <mxCell id="ubMrgsZEEIUG3p9_Rat9-145" value="" style="edgeStyle=orthogonalEdgeStyle;rounded=0;orthogonalLoop=1;jettySize=auto;html=1;" edge="1" parent="1" source="ubMrgsZEEIUG3p9_Rat9-128" target="ubMrgsZEEIUG3p9_Rat9-144">
          <mxGeometry relative="1" as="geometry" />
        </mxCell>
        <mxCell id="ubMrgsZEEIUG3p9_Rat9-128" value="token != NULL?" style="rhombus;whiteSpace=wrap;html=1;" vertex="1" parent="1">
          <mxGeometry x="460" y="400" width="120" height="80" as="geometry" />
        </mxCell>
        <mxCell id="ubMrgsZEEIUG3p9_Rat9-129" value="" style="edgeStyle=orthogonalEdgeStyle;rounded=0;orthogonalLoop=1;jettySize=auto;html=1;" edge="1" source="ubMrgsZEEIUG3p9_Rat9-131" target="ubMrgsZEEIUG3p9_Rat9-135" parent="1">
          <mxGeometry relative="1" as="geometry" />
        </mxCell>
        <mxCell id="ubMrgsZEEIUG3p9_Rat9-130" style="edgeStyle=orthogonalEdgeStyle;rounded=0;orthogonalLoop=1;jettySize=auto;html=1;entryX=0.5;entryY=0;entryDx=0;entryDy=0;" edge="1" source="ubMrgsZEEIUG3p9_Rat9-131" target="ubMrgsZEEIUG3p9_Rat9-137" parent="1">
          <mxGeometry relative="1" as="geometry">
            <mxPoint x="440" y="860" as="targetPoint" />
            <Array as="points">
              <mxPoint x="600" y="680" />
              <mxPoint x="600" y="860" />
              <mxPoint x="520" y="860" />
            </Array>
          </mxGeometry>
        </mxCell>
        <mxCell id="ubMrgsZEEIUG3p9_Rat9-131" value="tokLen % 2 == 1?" style="rhombus;whiteSpace=wrap;html=1;" vertex="1" parent="1">
          <mxGeometry x="460" y="640" width="120" height="80" as="geometry" />
        </mxCell>
        <mxCell id="ubMrgsZEEIUG3p9_Rat9-132" value="" style="edgeStyle=orthogonalEdgeStyle;rounded=0;orthogonalLoop=1;jettySize=auto;html=1;" edge="1" source="ubMrgsZEEIUG3p9_Rat9-133" target="ubMrgsZEEIUG3p9_Rat9-131" parent="1">
          <mxGeometry relative="1" as="geometry" />
        </mxCell>
        <mxCell id="ubMrgsZEEIUG3p9_Rat9-133" value="tokLen = strlen(token)" style="rounded=0;whiteSpace=wrap;html=1;" vertex="1" parent="1">
          <mxGeometry x="460" y="530" width="120" height="60" as="geometry" />
        </mxCell>
        <mxCell id="ubMrgsZEEIUG3p9_Rat9-134" value="" style="edgeStyle=orthogonalEdgeStyle;rounded=0;orthogonalLoop=1;jettySize=auto;html=1;" edge="1" source="ubMrgsZEEIUG3p9_Rat9-135" target="ubMrgsZEEIUG3p9_Rat9-137" parent="1">
          <mxGeometry relative="1" as="geometry" />
        </mxCell>
        <mxCell id="ubMrgsZEEIUG3p9_Rat9-135" value="strcat(sstr, token);&lt;br&gt;strcat(sstr, &quot; &quot;);" style="rounded=0;whiteSpace=wrap;html=1;" vertex="1" parent="1">
          <mxGeometry x="460" y="770" width="120" height="60" as="geometry" />
        </mxCell>
        <mxCell id="ubMrgsZEEIUG3p9_Rat9-136" style="edgeStyle=orthogonalEdgeStyle;rounded=0;orthogonalLoop=1;jettySize=auto;html=1;entryX=0.5;entryY=0;entryDx=0;entryDy=0;" edge="1" source="ubMrgsZEEIUG3p9_Rat9-137" target="ubMrgsZEEIUG3p9_Rat9-128" parent="1">
          <mxGeometry relative="1" as="geometry">
            <mxPoint x="620" y="380" as="targetPoint" />
            <Array as="points">
              <mxPoint x="440" y="920" />
              <mxPoint x="440" y="380" />
              <mxPoint x="520" y="380" />
            </Array>
          </mxGeometry>
        </mxCell>
        <mxCell id="ubMrgsZEEIUG3p9_Rat9-137" value="token =&lt;br&gt;strtok(NULL, &quot; &quot;);" style="rounded=0;whiteSpace=wrap;html=1;" vertex="1" parent="1">
          <mxGeometry x="460" y="890" width="120" height="60" as="geometry" />
        </mxCell>
        <mxCell id="ubMrgsZEEIUG3p9_Rat9-138" value="да" style="text;html=1;strokeColor=none;fillColor=none;align=center;verticalAlign=middle;whiteSpace=wrap;rounded=0;" vertex="1" parent="1">
          <mxGeometry x="510" y="470" width="60" height="30" as="geometry" />
        </mxCell>
        <mxCell id="ubMrgsZEEIUG3p9_Rat9-139" value="да" style="text;html=1;strokeColor=none;fillColor=none;align=center;verticalAlign=middle;whiteSpace=wrap;rounded=0;" vertex="1" parent="1">
          <mxGeometry x="510" y="710" width="60" height="30" as="geometry" />
        </mxCell>
        <mxCell id="ubMrgsZEEIUG3p9_Rat9-140" value="нет" style="text;html=1;strokeColor=none;fillColor=none;align=center;verticalAlign=middle;whiteSpace=wrap;rounded=0;" vertex="1" parent="1">
          <mxGeometry x="560" y="650" width="60" height="30" as="geometry" />
        </mxCell>
        <mxCell id="ubMrgsZEEIUG3p9_Rat9-142" value="нет" style="text;html=1;strokeColor=none;fillColor=none;align=center;verticalAlign=middle;whiteSpace=wrap;rounded=0;" vertex="1" parent="1">
          <mxGeometry x="350" y="410" width="60" height="30" as="geometry" />
        </mxCell>
        <mxCell id="ubMrgsZEEIUG3p9_Rat9-143" value="&lt;font style=&quot;font-size: 20px;&quot;&gt;2&lt;/font&gt;" style="text;html=1;strokeColor=none;fillColor=none;align=center;verticalAlign=middle;whiteSpace=wrap;rounded=0;" vertex="1" parent="1">
          <mxGeometry x="490" y="10" width="60" height="30" as="geometry" />
        </mxCell>
        <mxCell id="ubMrgsZEEIUG3p9_Rat9-144" value="Конец" style="strokeWidth=1;html=1;shape=mxgraph.flowchart.terminator;whiteSpace=wrap;" vertex="1" parent="1">
          <mxGeometry x="660" y="410" width="120" height="60" as="geometry" />
        </mxCell>
        <mxCell id="ubMrgsZEEIUG3p9_Rat9-146" value="нет" style="text;html=1;strokeColor=none;fillColor=none;align=center;verticalAlign=middle;whiteSpace=wrap;rounded=0;" vertex="1" parent="1">
          <mxGeometry x="560" y="410" width="60" height="30" as="geometry" />
        </mxCell>
        <mxCell id="ubMrgsZEEIUG3p9_Rat9-147" value="&lt;font style=&quot;font-size: 20px;&quot;&gt;3&lt;/font&gt;" style="text;html=1;strokeColor=none;fillColor=none;align=center;verticalAlign=middle;whiteSpace=wrap;rounded=0;" vertex="1" parent="1">
          <mxGeometry x="690" y="10" width="60" height="30" as="geometry" />
        </mxCell>
      </root>
    </mxGraphModel>
  </diagram>
</mxfile>
